<svg width="17" height="15" viewBox="0 0 17 15" fill="none" xmlns="http://www.w3.org/2000/svg">
<path fill-rule="evenodd" clip-rule="evenodd" d="M6.42151 6.9225C6.09339 6.9225 5.83394 7.1775 5.83394 7.5C5.83394 7.815 6.09339 8.0775 6.42151 8.0775H11V11.6625C11 13.5 9.48147 15 7.60429 15H3.88808C2.01853 15 0.5 13.5075 0.5 11.67V3.3375C0.5 1.4925 2.02616 0 3.89571 0H7.61955C9.48147 0 11 1.4925 11 3.33V6.9225H6.42151ZM13.7226 4.90516L15.9126 7.08766C16.0251 7.20016 16.0851 7.34266 16.0851 7.50016C16.0851 7.65016 16.0251 7.80016 15.9126 7.90516L13.7226 10.0877C13.6101 10.2002 13.4601 10.2602 13.3176 10.2602C13.1676 10.2602 13.0176 10.2002 12.9051 10.0877C12.6801 9.86266 12.6801 9.49516 12.9051 9.27016L14.1051 8.07766H11.0001V6.92266H14.1051L12.9051 5.73016C12.6801 5.50516 12.6801 5.13766 12.9051 4.91266C13.1301 4.68016 13.4976 4.68016 13.7226 4.90516Z" fill="#F67952"/>
</svg>
