<svg width="16" height="15" viewBox="0 0 16 15" fill="none" xmlns="http://www.w3.org/2000/svg">
<path fill-rule="evenodd" clip-rule="evenodd" d="M14.3016 8.68506C14.5699 8.82756 14.7768 9.05256 14.9225 9.27756C15.2061 9.74256 15.1831 10.3126 14.9071 10.8151L14.3706 11.7151C14.087 12.1951 13.5582 12.4951 13.014 12.4951C12.7457 12.4951 12.4468 12.4201 12.2015 12.2701C12.0022 12.1426 11.7723 12.0976 11.527 12.0976C10.7682 12.0976 10.1321 12.7201 10.1091 13.4626C10.1091 14.3251 9.40391 15.0001 8.52247 15.0001H7.48007C6.59097 15.0001 5.88582 14.3251 5.88582 13.4626C5.87049 12.7201 5.23432 12.0976 4.47552 12.0976C4.22258 12.0976 3.99264 12.1426 3.80102 12.2701C3.55576 12.4201 3.24917 12.4951 2.98857 12.4951C2.43671 12.4951 1.90785 12.1951 1.62426 11.7151L1.09539 10.8151C0.8118 10.3276 0.79647 9.74256 1.08006 9.27756C1.2027 9.05256 1.43264 8.82756 1.69324 8.68506C1.90785 8.58006 2.04581 8.40756 2.17611 8.20506C2.55935 7.56006 2.32941 6.71256 1.67791 6.33006C0.919105 5.90256 0.673835 4.95006 1.11072 4.20756L1.62426 3.32256C2.06881 2.58006 3.01923 2.31756 3.7857 2.75256C4.45252 3.11256 5.31863 2.87256 5.70953 2.23506C5.83217 2.02506 5.90115 1.80006 5.88582 1.57506C5.87049 1.28256 5.9548 1.00506 6.10043 0.780061C6.38402 0.315061 6.89756 0.015061 7.45708 6.10352e-05H8.5378C9.10498 6.10352e-05 9.61852 0.315061 9.90211 0.780061C10.0401 1.00506 10.1321 1.28256 10.1091 1.57506C10.0937 1.80006 10.1627 2.02506 10.2853 2.23506C10.6762 2.87256 11.5424 3.11256 12.2168 2.75256C12.9756 2.31756 13.9337 2.58006 14.3706 3.32256L14.8842 4.20756C15.3287 4.95006 15.0834 5.90256 14.317 6.33006C13.6655 6.71256 13.4355 7.56006 13.8264 8.20506C13.9491 8.40756 14.087 8.58006 14.3016 8.68506ZM5.83219 7.50755C5.83219 8.68505 6.8056 9.62255 8.00896 9.62255C9.21231 9.62255 10.1627 8.68505 10.1627 7.50755C10.1627 6.33005 9.21231 5.38505 8.00896 5.38505C6.8056 5.38505 5.83219 6.33005 5.83219 7.50755Z" fill="#F67952"/>
</svg>
